<svg xmlns="http://www.w3.org/2000/svg" fill="none" viewBox="0 0 2500 816"><g clip-path="url(#a)"><path fill="#3780FF" d="M307.9 0H330a303.4 303.4 0 0 1 207.7 87.7c-20.2 20.6-40.7 40.3-60.5 60.9-30.6-27.7-67.5-49.1-107.8-56.7A227.9 227.9 0 0 0 196 124.7a227.3 227.3 0 0 0-99.4 160.6 233.5 233.5 0 0 0 50.7 180.4 224.5 224.5 0 0 0 163.6 80.5c58.7 3.4 120-14.7 162.8-55.8 33.5-29 49-73 54-115.7-69.5 0-139.2.4-208.8 0v-86.5H612c15.1 92.7-6.7 197.2-77.2 263.5-47 47-112 74.6-178.3 80A327.4 327.4 0 0 1 169 595 322.8 322.8 0 0 1 19.3 424a309.3 309.3 0 0 1-2.1-209.3 319.4 319.4 0 0 1 115.4-153A329.3 329.3 0 0 1 307.9 0Z"/><path fill="#38B137" d="M1990 21.9h89.7v599c-29.8 0-60 .4-89.8-.4.4-199.3 0-399 0-598.6Z"/><path fill="#FA3913" d="M811.7 229.5a210.8 210.8 0 0 1 161 34.4 197 197 0 0 1 79.3 125.9c11.3 58.3-3 122-40.7 168.2A205 205 0 0 1 839 633a204.1 204.1 0 0 1-152.7-81.8c-39.8-53.6-49.5-127.5-27.6-190.4 21.8-67.5 83.4-119.1 153-131.3Zm12.5 79.7a112.8 112.8 0 0 0-58.7 37.3c-40.7 48.7-38.2 128 6.7 173.3a111.7 111.7 0 0 0 177.9-26.4c27.7-50 19.7-118.7-22.7-157.8a113.2 113.2 0 0 0-103.2-26.4Z"/><path fill="#FCBD06" d="M1256.3 229.5c63.3-12.1 132.5 5.5 180 50 77.1 69.1 85.5 198.8 19.7 278.5a204.7 204.7 0 0 1-168.3 75 202.6 202.6 0 0 1-156.8-81.8c-40.7-54.9-49.5-130.4-26.5-194.6a199.2 199.2 0 0 1 151.9-127Zm12.6 79.7a114.7 114.7 0 0 0-58.8 37c-40.2 47.7-38.5 125.8 4.7 171.5a112.2 112.2 0 0 0 102.3 33.1 115 115 0 0 0 78-57.4c27.3-50.4 19.3-119.2-23.5-158.2a112.4 112.4 0 0 0-102.7-26Z"/><path fill="#3780FF" d="M1633.4 253.8c48.2-30.2 112.4-38.5 164.4-12.5 16.4 7 29.8 19.3 42.8 31.4.4-11.3 0-23 .4-34.8 28.1.4 56.2 0 84.8.4v370c-.5 55.8-14.7 115-55 155.6-44 44.9-111.6 58.7-172.4 49.5-65-9.6-121.6-57-146.8-117 25.2-12.2 51.6-21.8 77.6-33.2 14.7 34.4 44.5 63.8 81.8 70.5 37.3 6.7 80.5-2.5 104.9-33.5 26-32 26-75.5 24.7-114.6-19.3 19-41.5 35.7-68.4 42-58.3 16.3-122.5-3.8-167.3-43.2a205.5 205.5 0 0 1-69.7-160.7 207.4 207.4 0 0 1 98.2-169.9Zm86.8 53.7a110.4 110.4 0 0 0-65.8 38.2c-39.5 47-39.5 122 .4 168.2a109.8 109.8 0 0 0 94.4 38.6 106.6 106.6 0 0 0 80-53.3c27.8-49 23.1-115.7-14.2-158.5-23-26.4-60-39.5-94.8-33.2Z"/><path fill="#FA3913" d="M2187.5 275.2c50.3-47 128-62.9 192.5-38.1 61.3 23 100.3 81.3 120 141.3-91 37.8-181.6 75.1-272.7 112.9 12.6 23.9 32 45.7 58 54.5 36.4 13 80 8.4 110.7-16a178.1 178.1 0 0 0 31-33c23 15.4 46.2 30.5 69.2 46a202 202 0 0 1-146.8 89c-65.4 8-135-17.2-177.4-68.4-69.7-80.5-63-215.6 15.5-288.2Zm44.9 77.6a119.8 119.8 0 0 0-19.7 70.5 33573 33573 0 0 0 182.4-76c-10-23.4-34.4-37.7-59.1-41.4-39.9-7.2-81.4 14.2-103.6 47Z"/></g><defs><clipPath id="a"><path fill="#fff" d="M0 0h2500v816H0z"/></clipPath></defs></svg>